<?xml version="1.0" encoding="utf-8"?>
<!-- Generator: Adobe Illustrator 18.1.1, SVG Export Plug-In . SVG Version: 6.00 Build 0)  -->
<svg version="1.1" id="Layer_1" xmlns="http://www.w3.org/2000/svg" xmlns:xlink="http://www.w3.org/1999/xlink" x="0px" y="0px"
	 viewBox="0 0 200 200" enable-background="new 0 0 200 200" xml:space="preserve">
<g>
	<g>
		<path d="M109.1,110.3h-0.6v-4.1h0.6c0.5,0,0.9-0.1,1.1-0.4c0.4-0.4,0.5-1,0.5-1.3v-7.2c0-0.8-0.3-1.1-0.7-1.3
			c-0.5-0.2-1-0.3-1-0.3l0-0.6h-0.6v-3.5h0.6c0.2,0,1.5,0,2.7,0.7c1.9,0.9,3,2.7,3,5v7.2c0,0.3,0,2.5-1.7,4.2
			C112.1,109.8,110.7,110.3,109.1,110.3z M109.7,107.4v1.7c1.1-0.1,1.9-0.5,2.6-1.2c1.3-1.3,1.3-3.2,1.3-3.3v-7.2
			c0-1.8-0.8-3.2-2.3-3.9c-0.6-0.3-1.2-0.4-1.6-0.5v1.7c0.3,0.1,0.6,0.2,1,0.3c0.9,0.5,1.3,1.2,1.3,2.3v7.2c0,0,0,1.3-0.8,2.1
			C110.7,107.1,110.3,107.3,109.7,107.4z"/>
	</g>
</g>
<g>
	<g>
		<path fill="#FFFFFF" d="M100,118.8c-3.9,0-6.7-0.7-8.3-1.9c-1.3-1.1-1.4-2.2-1.4-2.3V89.2h1.2v0c0,0,0.2,3.1,8.5,3.1
			s8.5-3,8.5-3.1v0h1.2v25.4c0,0.1,0,1.2-1.4,2.3C106.7,118.2,103.9,118.8,100,118.8z"/>
	</g>
	<g>
		<path d="M109,89.2v25.4c0,0,0,3.6-9.1,3.6s-9.1-3.6-9.1-3.6V89.2c0,0,0,3.6,9.1,3.6S109,89.2,109,89.2 M107.9,89.1
			c0,0-0.1,0.6-0.9,1.1c-0.9,0.6-2.9,1.4-7,1.4c-4.1,0-6-0.8-7-1.4c-0.9-0.6-0.9-1.1-0.9-1.1c0,0,0,0,0,0.1h-2.4v25.4
			c0,0.2,0.1,1.5,1.6,2.7c1.7,1.4,4.6,2.1,8.7,2.1c4,0,7-0.7,8.7-2.1c1.5-1.2,1.6-2.5,1.6-2.7V89.2L107.9,89.1
			C107.9,89.1,107.9,89.1,107.9,89.1L107.9,89.1z"/>
	</g>
</g>
<g>
	<path d="M95.1,92.6V111c0,0.1,0,0.3-0.1,0.4c-0.1,0.1-0.1,0.2-0.5,0.2s-0.4-0.1-0.5-0.2c-0.1-0.2-0.1-0.3-0.1-0.4V92.6H95.1
		 M96.3,91.4h-3.6v19.6c0,0,0,1.8,1.8,1.8c1.8,0,1.8-1.8,1.8-1.8L96.3,91.4L96.3,91.4z"/>
</g>
<g>
	<path d="M100.6,92.6v20.1c0,0.1,0,0.3-0.1,0.4c-0.1,0.1-0.1,0.2-0.5,0.2s-0.4-0.1-0.5-0.2c-0.1-0.2-0.1-0.3-0.1-0.4V92.6H100.6
		 M101.8,91.4h-3.6v21.4c0,0,0,1.8,1.8,1.8s1.8-1.8,1.8-1.8L101.8,91.4L101.8,91.4z"/>
</g>
<g>
	<path d="M106.2,92.6V111c0,0.1,0,0.3-0.1,0.4c-0.1,0.1-0.1,0.2-0.5,0.2s-0.4-0.1-0.5-0.2c-0.1-0.2-0.1-0.3-0.1-0.4V92.6H106.2
		 M107.3,91.4h-3.6v19.6c0,0,0,1.8,1.8,1.8c1.8,0,1.8-1.8,1.8-1.8L107.3,91.4L107.3,91.4z"/>
</g>
<g>
	<g>
		<path fill="#FFFFFF" d="M94.7,98.4c-3.4,0-6.1-2.7-6.1-6.1c0,0,0-0.1,0-0.1c-1.3-0.6-2.1-1.9-2.1-3.4c0-2.1,1.7-3.8,3.8-3.8
			c0.3-1.9,1.9-3.4,3.9-3.4c1,0,2,0.4,2.7,1.1c1-0.6,2.2-0.9,3.4-0.9c0.6,0,1.2,0.1,1.8,0.3c0.9-1.5,2.5-2.4,4.2-2.4
			c2.4,0,4.5,1.7,4.9,4.1c1.7,0.6,3,2.2,3,4.1c0,2.1-1.4,3.8-3.4,4.2c-0.3,1.9-2,3.4-4,3.4c-1.2,0-2.2-0.5-3-1.3c-1,0.6-2.2,1-3.5,1
			c0,0-0.1,0-0.1,0C99,97.1,97,98.4,94.7,98.4z"/>
	</g>
	<g>
		<path d="M106.3,80.3c2.3,0,4.1,1.7,4.4,3.9c1.7,0.4,2.9,1.9,2.9,3.6c0,1.9-1.5,3.5-3.4,3.7c-0.1,1.9-1.6,3.3-3.5,3.3
			c-1.2,0-2.3-0.6-2.9-1.5c-1,0.7-2.3,1.2-3.6,1.2c-0.2,0-0.3,0-0.5,0c-0.9,1.9-2.8,3.3-5,3.3c-3,0-5.5-2.5-5.5-5.5
			c0-0.2,0-0.4,0-0.5c-1.3-0.4-2.2-1.6-2.2-3c0-1.8,1.4-3.2,3.2-3.2c0.2,0,0.3,0,0.5,0c0,0,0,0,0,0c0-1.9,1.5-3.4,3.4-3.4
			c1.1,0,2,0.5,2.6,1.3c1-0.7,2.2-1.1,3.5-1.1c0.7,0,1.5,0.1,2.1,0.4C103,81.3,104.5,80.3,106.3,80.3 M106.3,79.1
			c-1.1,0-2.1,0.3-3,0.9c-0.6,0.4-1.1,0.8-1.5,1.4c-0.5-0.1-1-0.2-1.6-0.2c-1.2,0-2.3,0.3-3.3,0.8c-0.8-0.6-1.8-1-2.8-1
			c-2.1,0-3.9,1.4-4.4,3.4c-2.2,0.3-3.9,2.1-3.9,4.3c0,1.6,0.8,3,2.1,3.8c0.1,3.6,3.1,6.5,6.7,6.5c2.4,0,4.5-1.3,5.7-3.3
			c1.1,0,2.2-0.3,3.2-0.8c0.8,0.8,2,1.2,3.1,1.2c2.2,0,4-1.5,4.5-3.5c0.8-0.3,1.6-0.7,2.2-1.4c0.8-0.9,1.3-2.1,1.3-3.3
			c0-1.1-0.4-2.2-1.1-3.1c-0.5-0.6-1.2-1.1-2-1.5c-0.3-1.1-0.8-2-1.7-2.8C109,79.6,107.7,79.1,106.3,79.1L106.3,79.1z"/>
	</g>
</g>
<g>
	<path d="M92.8,94c-0.2,0-0.3-0.1-0.4-0.2l-0.9-0.9c-0.2-0.2-0.2-0.6,0-0.8s0.6-0.2,0.8,0l0.9,0.9c0.2,0.2,0.2,0.6,0,0.8
		C93.1,93.9,92.9,94,92.8,94z"/>
</g>
<g>
	<path d="M101.2,87.4c-0.2,0-0.3-0.1-0.4-0.2l-0.9-0.9c-0.2-0.2-0.2-0.6,0-0.8s0.6-0.2,0.8,0l0.9,0.9c0.2,0.2,0.2,0.6,0,0.8
		C101.5,87.3,101.4,87.4,101.2,87.4z"/>
</g>
<g>
	<path d="M101.7,80.4c-0.2,0-0.3-0.1-0.4-0.2l-0.9-0.9c-0.2-0.2-0.2-0.6,0-0.8c0.2-0.2,0.6-0.2,0.8,0l0.9,0.9c0.2,0.2,0.2,0.6,0,0.8
		C102,80.4,101.8,80.4,101.7,80.4z"/>
</g>
<g>
	<path d="M95.7,87.5c-0.2,0-0.3-0.1-0.4-0.2l-1.5-1.5c-0.2-0.2-0.2-0.6,0-0.8s0.6-0.2,0.8,0l1.5,1.5c0.2,0.2,0.2,0.6,0,0.8
		C96,87.4,95.9,87.5,95.7,87.5z"/>
</g>
<g>
	<path d="M106.2,87.7c-0.2,0-0.3-0.1-0.4-0.2l-1.5-1.5c-0.2-0.2-0.2-0.6,0-0.8s0.6-0.2,0.8,0l1.5,1.5c0.2,0.2,0.2,0.6,0,0.8
		C106.5,87.6,106.3,87.7,106.2,87.7z"/>
</g>
<g>
	<path d="M107.2,91.9c-0.2,0-0.3-0.1-0.4-0.2l-2.1-2.1c-0.2-0.2-0.2-0.6,0-0.8c0.2-0.2,0.6-0.2,0.8,0l2.1,2.1c0.2,0.2,0.2,0.6,0,0.8
		C107.5,91.9,107.4,91.9,107.2,91.9z"/>
</g>
<g>
	<path d="M100.2,91.3c-0.2,0-0.3-0.1-0.4-0.2l-0.8-0.8c-0.2-0.2-0.2-0.6,0-0.8s0.6-0.2,0.8,0l0.8,0.8c0.2,0.2,0.2,0.6,0,0.8
		C100.5,91.3,100.3,91.3,100.2,91.3z"/>
</g>
<g>
	<path d="M88.6,84.2c-0.2,0-0.3-0.1-0.4-0.2l-1-1c-0.2-0.2-0.2-0.6,0-0.8s0.6-0.2,0.8,0l1,1c0.2,0.2,0.2,0.6,0,0.8
		C88.9,84.1,88.8,84.2,88.6,84.2z"/>
</g>
<g>
	<path d="M110.3,88.4c-0.2,0-0.3-0.1-0.4-0.2l-1-1c-0.2-0.2-0.2-0.6,0-0.8c0.2-0.2,0.6-0.2,0.8,0l1,1c0.2,0.2,0.2,0.6,0,0.8
		C110.6,88.3,110.4,88.4,110.3,88.4z"/>
</g>
<g>
	<path d="M114.1,83.4c-0.2,0-0.3-0.1-0.4-0.2l-1-1c-0.2-0.2-0.2-0.6,0-0.8s0.6-0.2,0.8,0l1,1c0.2,0.2,0.2,0.6,0,0.8
		C114.4,83.3,114.2,83.4,114.1,83.4z"/>
</g>
<g>
	<path d="M91.3,89.8c-0.2,0-0.3-0.1-0.4-0.2l-1.2-1.2c-0.2-0.2-0.2-0.6,0-0.8s0.6-0.2,0.8,0l1.2,1.2c0.2,0.2,0.2,0.6,0,0.8
		C91.6,89.8,91.5,89.8,91.3,89.8z"/>
</g>
<g>
	<path d="M87.1,94.6c-0.2,0-0.3-0.1-0.4-0.2l-1.2-1.2c-0.2-0.2-0.2-0.6,0-0.8s0.6-0.2,0.8,0l1.2,1.2c0.2,0.2,0.2,0.6,0,0.8
		C87.4,94.6,87.3,94.6,87.1,94.6z"/>
</g>
<g>
	<g>
		<path d="M126.3,110.1l4.5,2.2c0.1,0.1,0.2,0.1,0.1,0.3l-0.3,0.6c-0.1,0.1-0.1,0.2-0.3,0.1l-1.9-0.9c0,0,0,0,0,0s0,0,0,0l1.4,2.2
			c0.1,0.1,0.1,0.2,0,0.3l-0.3,0.7c0,0.1-0.1,0.1-0.2,0.1c0,0,0,0-0.1-0.1l-1.6-2.5c0,0,0,0,0,0c0,0,0,0,0,0l-2.9,0.3
			c0,0-0.1,0-0.1,0c-0.1,0-0.1-0.1,0-0.2l0.4-0.7c0.1-0.1,0.1-0.2,0.3-0.2l2.6-0.3c0,0,0,0,0,0c0,0,0,0,0,0l-1.9-0.9
			c-0.1-0.1-0.2-0.1-0.1-0.3l0.3-0.6C126,110,126.1,110,126.3,110.1z"/>
	</g>
	<g>
		<path d="M118.4,121.9l-0.2-0.9c0-0.1,0-0.2,0.1-0.3l0.6-0.4c0.1-0.1,0.1-0.1,0.2,0c0,0,0,0,0,0.1l1.4,5.3c0,0.1,0,0.2-0.1,0.3
			l-0.4,0.3c-0.1,0.1-0.2,0.1-0.3,0l-4.7-2.8c0,0,0,0-0.1-0.1c0-0.1,0-0.1,0.1-0.2l0.6-0.4c0.1-0.1,0.2-0.1,0.3,0l0.8,0.5
			c0,0,0,0,0,0L118.4,121.9C118.4,121.9,118.4,121.9,118.4,121.9z M119.1,124.6l-0.4-1.6c0,0,0,0,0,0c0,0,0,0,0,0l-1,0.7
			c0,0,0,0,0,0l0,0L119.1,124.6C119.1,124.6,119.1,124.6,119.1,124.6C119.1,124.6,119.1,124.6,119.1,124.6z"/>
	</g>
	<g>
		<path d="M105.9,130.3l-0.5-3.2c0-0.1,0-0.2,0.2-0.2l0.6-0.1c0.1,0,0.2,0,0.2,0.2l0.8,5c0,0.1,0,0.2-0.2,0.2l-0.6,0.1l0,0
			c-0.1,0-0.2,0-0.3-0.1l-2.7-2.9l0.5,3.2c0,0.1,0,0.2-0.2,0.2l-0.6,0.1c-0.1,0-0.2,0-0.2-0.2l-0.8-5c0-0.1,0-0.2,0.2-0.2l0.6-0.1
			c0.1,0,0.2,0,0.3,0.1L105.9,130.3z"/>
	</g>
	<g>
		<path d="M92.8,126.7l-1.5,4.8c0,0.1-0.1,0.2-0.3,0.1l-1.4-0.5c-0.4-0.1-0.7-0.4-0.9-0.8c-0.2-0.4-0.2-0.8-0.1-1.3
			c0.2-0.5,0.4-0.8,0.8-1c0.4-0.2,0.8-0.2,1.2-0.1l0.6,0.2c0,0,0,0,0.1,0l0.6-1.8c0-0.1,0.1-0.2,0.3-0.1l0.6,0.2
			C92.8,126.5,92.8,126.6,92.8,126.7z M90.5,130.3l0.3-1.1c0,0,0,0,0-0.1l-0.6-0.2c-0.2-0.1-0.4,0-0.5,0.1c-0.1,0.1-0.2,0.2-0.2,0.3
			c0,0.1,0,0.2,0,0.4c0,0.2,0.2,0.3,0.4,0.4L90.5,130.3C90.5,130.4,90.5,130.4,90.5,130.3z"/>
	</g>
	<g>
		<path d="M80.5,120.9l0.8-0.4c0.1-0.1,0.2,0,0.3,0.1l0.5,0.5c0.1,0.1,0.1,0.1,0,0.2c0,0,0,0-0.1,0l-5,2.3c-0.1,0.1-0.2,0-0.3,0
			l-0.3-0.3c-0.1-0.1-0.1-0.2-0.1-0.3l2.1-5.1c0,0,0-0.1,0-0.1c0.1-0.1,0.1-0.1,0.2,0l0.5,0.5c0.1,0.1,0.1,0.2,0.1,0.3l-0.3,0.9
			c0,0,0,0,0,0L80.5,120.9C80.4,120.9,80.4,121,80.5,120.9z M77.9,122.1l1.5-0.7c0,0,0,0,0,0c0,0,0,0,0,0l-0.9-0.8c0,0,0,0,0,0
			c0,0,0,0,0,0L77.9,122.1C77.9,122.1,77.9,122.1,77.9,122.1C77.9,122.1,77.9,122.1,77.9,122.1z"/>
	</g>
	<g>
		<path d="M68.7,111.6l-0.2-0.6c-0.1-0.1,0-0.2,0.1-0.3l4.7-1.8c0.1-0.1,0.2,0,0.3,0.1l0.2,0.6c0.1,0.1,0,0.2-0.1,0.3l-4.7,1.8
			C68.8,111.8,68.7,111.8,68.7,111.6z"/>
	</g>
	<g>
		<path fill="#F1F2F2" d="M66.5,98.6h3.8c0.1,0,0.2,0.1,0.2,0.2v0.6c0,0.1-0.1,0.2-0.2,0.2h-3.8c-0.1,0-0.2-0.1-0.2-0.2v-0.6
			C66.3,98.7,66.3,98.6,66.5,98.6z M70.8,99.2c0-0.1,0-0.3,0.1-0.4c0.1-0.1,0.2-0.1,0.4-0.1c0.1,0,0.3,0,0.3,0.1
			c0.1,0.1,0.1,0.2,0.1,0.4c0,0.1,0,0.2-0.1,0.3s-0.2,0.1-0.3,0.1c-0.1,0-0.3,0-0.4-0.1C70.8,99.4,70.8,99.3,70.8,99.2z"/>
	</g>
</g>
<g>
	<g>
		<path d="M73.7,88.2L69.1,86C69,86,69,85.9,69,85.8l0.3-0.6c0.1-0.1,0.1-0.2,0.3-0.1l1.9,0.9c0,0,0,0,0,0s0,0,0,0l-1.4-2.2
			c-0.1-0.1-0.1-0.2,0-0.3l0.3-0.7c0-0.1,0.1-0.1,0.2-0.1c0,0,0,0,0.1,0.1l1.6,2.5c0,0,0,0,0,0c0,0,0,0,0,0l2.9-0.3c0,0,0.1,0,0.1,0
			c0.1,0,0.1,0.1,0,0.2L75,85.9c-0.1,0.1-0.1,0.2-0.3,0.2l-2.6,0.3c0,0,0,0,0,0c0,0,0,0,0,0l1.9,0.9c0.1,0.1,0.2,0.1,0.1,0.3
			l-0.3,0.6C73.9,88.3,73.8,88.3,73.7,88.2z"/>
	</g>
	<g>
		<path d="M81.5,76.5l0.2,0.9c0,0.1,0,0.2-0.1,0.3L81.1,78c-0.1,0.1-0.1,0.1-0.2,0c0,0,0,0,0-0.1l-1.4-5.3c0-0.1,0-0.2,0.1-0.3
			l0.4-0.3c0.1-0.1,0.2-0.1,0.3,0l4.7,2.8c0,0,0,0,0.1,0.1c0,0.1,0,0.1-0.1,0.2l-0.6,0.4c-0.1,0.1-0.2,0.1-0.3,0l-0.8-0.5
			c0,0,0,0,0,0L81.5,76.5C81.5,76.4,81.5,76.4,81.5,76.5z M80.8,73.8l0.4,1.6c0,0,0,0,0,0c0,0,0,0,0,0l1-0.7c0,0,0,0,0,0l0,0
			L80.8,73.8C80.8,73.7,80.8,73.7,80.8,73.8L80.8,73.8z"/>
	</g>
	<g>
		<path d="M94,68l0.5,3.2c0,0.1,0,0.2-0.2,0.2l-0.6,0.1c-0.1,0-0.2,0-0.2-0.2l-0.8-5c0-0.1,0-0.2,0.2-0.2l0.6-0.1l0,0
			c0.1,0,0.2,0,0.3,0.1l2.7,2.9l-0.5-3.2c0-0.1,0-0.2,0.2-0.2l0.6-0.1c0.1,0,0.2,0,0.2,0.2l0.8,5c0,0.1,0,0.2-0.2,0.2L97,71
			c-0.1,0-0.2,0-0.3-0.1L94,68z"/>
	</g>
	<g>
		<path d="M107.2,71.6l1.5-4.8c0-0.1,0.1-0.2,0.3-0.1l1.4,0.4c0.4,0.1,0.7,0.4,0.9,0.8c0.2,0.4,0.2,0.8,0.1,1.3
			c-0.2,0.5-0.4,0.8-0.8,1c-0.4,0.2-0.8,0.2-1.2,0.1l-0.6-0.2c0,0,0,0-0.1,0l-0.6,1.8c0,0.1-0.1,0.2-0.3,0.1l-0.6-0.2
			C107.1,71.8,107.1,71.7,107.2,71.6z M109.4,68l-0.3,1.1c0,0,0,0,0,0.1l0.6,0.2c0.2,0.1,0.4,0,0.5-0.1c0.1-0.1,0.2-0.2,0.2-0.3
			c0-0.1,0-0.2,0-0.4c0-0.2-0.2-0.3-0.4-0.4L109.4,68C109.4,67.9,109.4,67.9,109.4,68z"/>
	</g>
	<g>
		<path d="M119.4,77.4l-0.8,0.4c-0.1,0.1-0.2,0-0.3-0.1l-0.5-0.5c-0.1-0.1-0.1-0.1,0-0.2c0,0,0,0,0.1,0l5-2.3c0.1-0.1,0.2,0,0.3,0
			l0.3,0.3c0.1,0.1,0.1,0.2,0.1,0.3l-2.1,5.1c0,0,0,0.1,0,0.1c-0.1,0.1-0.1,0.1-0.2,0l-0.5-0.5c-0.1-0.1-0.1-0.2-0.1-0.3l0.3-0.9
			c0,0,0,0,0,0L119.4,77.4C119.5,77.4,119.5,77.4,119.4,77.4z M122,76.2l-1.5,0.7c0,0,0,0,0,0c0,0,0,0,0,0l0.9,0.8c0,0,0,0,0,0
			c0,0,0,0,0,0L122,76.2C122,76.2,122,76.2,122,76.2C122,76.2,122,76.2,122,76.2z"/>
	</g>
	<g>
		<path d="M131.2,86.7l0.2,0.6c0.1,0.1,0,0.2-0.1,0.3l-4.7,1.8c-0.1,0.1-0.2,0-0.3-0.1l-0.2-0.6c-0.1-0.1,0-0.2,0.1-0.3l4.7-1.8
			C131.1,86.5,131.2,86.6,131.2,86.7z"/>
	</g>
	<g>
		<path fill="#F1F2F2" d="M129.1,99.2c0,0.1,0,0.3-0.1,0.4c-0.1,0.1-0.2,0.1-0.4,0.1c-0.1,0-0.3,0-0.3-0.1c-0.1-0.1-0.1-0.2-0.1-0.4
			c0-0.1,0-0.2,0.1-0.3c0.1-0.1,0.2-0.1,0.3-0.1c0.1,0,0.3,0,0.4,0.1C129.1,98.9,129.1,99,129.1,99.2z M133.4,99.7h-3.8
			c-0.1,0-0.2-0.1-0.2-0.2v-0.6c0-0.1,0.1-0.2,0.2-0.2h3.8c0.1,0,0.2,0.1,0.2,0.2v0.6C133.6,99.6,133.6,99.7,133.4,99.7z"/>
	</g>
</g>
<g>
	<path d="M187.6,100.7c-1.3,0-2-0.6-2.5-1c-0.5-0.4-0.9-0.8-1.8-0.8s-1.3,0.3-1.8,0.8c-0.6,0.5-1.2,1-2.5,1c-1.3,0-2-0.6-2.5-1
		c-0.5-0.4-0.9-0.8-1.8-0.8s-1.3,0.3-1.8,0.8c-0.6,0.5-1.2,1-2.5,1s-2-0.6-2.5-1c-0.5-0.4-0.9-0.8-1.8-0.8s-1.3,0.3-1.8,0.8
		c-0.6,0.5-1.2,1-2.5,1s-2-0.6-2.5-1c-0.5-0.4-0.9-0.8-1.8-0.8s-1.3,0.3-1.8,0.8c-0.6,0.5-1.2,1-2.5,1s-2-0.6-2.5-1
		c-0.5-0.4-0.9-0.8-1.8-0.8c-0.9,0-1.3,0.3-1.8,0.8c-0.6,0.5-1.2,1-2.5,1s-2-0.6-2.5-1c-0.5-0.4-0.9-0.8-1.8-0.8
		c-0.3,0-0.6-0.3-0.6-0.6c0-0.3,0.3-0.6,0.6-0.6l0,0c1.3,0,2,0.6,2.5,1c0.5,0.4,0.9,0.8,1.8,0.8s1.3-0.3,1.8-0.8
		c0.6-0.5,1.2-1,2.5-1s2,0.6,2.5,1c0.5,0.4,0.9,0.8,1.8,0.8s1.3-0.3,1.8-0.8c0.6-0.5,1.2-1,2.5-1s2,0.6,2.5,1
		c0.5,0.4,0.9,0.8,1.8,0.8s1.3-0.3,1.8-0.8c0.6-0.5,1.2-1,2.5-1s2,0.6,2.5,1c0.5,0.4,0.9,0.8,1.8,0.8s1.3-0.3,1.8-0.8
		c0.6-0.5,1.2-1,2.5-1s2,0.6,2.5,1c0.5,0.4,0.9,0.8,1.8,0.8c0.9,0,1.3-0.3,1.8-0.8c0.6-0.5,1.2-1,2.5-1s2,0.6,2.5,1
		c0.5,0.4,0.9,0.8,1.8,0.8c0.9,0,1.3-0.3,1.8-0.8c0.6-0.5,1.2-1,2.5-1c0.3,0,0.6,0.3,0.6,0.6c0,0.3-0.3,0.6-0.6,0.6
		c-0.9,0-1.3,0.3-1.8,0.8C189.6,100.1,188.9,100.7,187.6,100.7z"/>
</g>
<g>
	<path d="M56.6,100.7c-1.3,0-2-0.6-2.5-1c-0.5-0.4-0.9-0.8-1.8-0.8c-0.9,0-1.3,0.3-1.8,0.8c-0.6,0.5-1.2,1-2.5,1s-2-0.6-2.5-1
		c-0.5-0.4-0.9-0.8-1.8-0.8c-0.9,0-1.3,0.3-1.8,0.8c-0.6,0.5-1.2,1-2.5,1s-2-0.6-2.5-1c-0.5-0.4-0.9-0.8-1.8-0.8
		c-0.9,0-1.3,0.3-1.8,0.8c-0.6,0.5-1.2,1-2.5,1c-1.3,0-2-0.6-2.5-1c-0.5-0.4-0.9-0.8-1.8-0.8c-0.9,0-1.3,0.3-1.8,0.8
		c-0.6,0.5-1.2,1-2.5,1c-1.3,0-2-0.6-2.5-1c-0.5-0.4-0.9-0.8-1.8-0.8c-0.9,0-1.3,0.3-1.8,0.8c-0.6,0.5-1.2,1-2.5,1s-2-0.6-2.5-1
		c-0.5-0.4-0.9-0.8-1.8-0.8c-0.3,0-0.6-0.3-0.6-0.6c0-0.3,0.3-0.6,0.6-0.6c1.3,0,2,0.6,2.5,1c0.5,0.4,0.9,0.8,1.8,0.8
		c0.9,0,1.3-0.3,1.8-0.8c0.6-0.5,1.2-1,2.5-1c1.3,0,2,0.6,2.5,1c0.5,0.4,0.9,0.8,1.8,0.8s1.3-0.3,1.8-0.8c0.6-0.5,1.2-1,2.5-1
		s2,0.6,2.5,1c0.5,0.4,0.9,0.8,1.8,0.8c0.9,0,1.3-0.3,1.8-0.8c0.6-0.5,1.2-1,2.5-1s2,0.6,2.5,1c0.5,0.4,0.9,0.8,1.8,0.8
		c0.9,0,1.3-0.3,1.8-0.8c0.6-0.5,1.2-1,2.5-1s2,0.6,2.5,1c0.5,0.4,0.9,0.8,1.8,0.8c0.9,0,1.3-0.3,1.8-0.8c0.6-0.5,1.2-1,2.5-1
		s2,0.6,2.5,1c0.5,0.4,0.9,0.8,1.8,0.8s1.3-0.3,1.8-0.8c0.6-0.5,1.2-1,2.5-1c0.3,0,0.6,0.3,0.6,0.6c0,0.3-0.3,0.6-0.6,0.6
		c-0.9,0-1.3,0.3-1.8,0.8C58.6,100.1,57.9,100.7,56.6,100.7z"/>
</g>
</svg>
