<?xml version="1.0" encoding="utf-8"?>
<!-- Generator: Adobe Illustrator 18.1.1, SVG Export Plug-In . SVG Version: 6.00 Build 0)  -->
<svg version="1.1" id="Layer_1" xmlns="http://www.w3.org/2000/svg" xmlns:xlink="http://www.w3.org/1999/xlink" x="0px" y="0px"
	 viewBox="0 0 200 50" enable-background="new 0 0 200 50" xml:space="preserve">
<g>
	<path d="M13.8,6.7H15v35.4h-1.2V6.7z M18.7,26.8l18-20.1h1.5L18.7,28.6V26.8z M27.1,24.6l8.3,10.8l2.9-3.4c1.5-1.7,2.6-2.1,5.4-2.1
		h12.9v1.2H43.6c-2.5,0-3.2,0.2-4.5,1.7l-3.1,3.5l4.5,5.8h-1.4L26.3,25.5L27.1,24.6z M60.3,6.7h1.1v35.4h-1.2V8.6L44.9,26.2h-1.5
		L60.3,6.7z"/>
	<path d="M74.4,6.7h1.2l24.5,35v0.4h-1.2L75.6,8.8v33.4h-1.2V6.7z M98.9,6.7h1.2v28.6l-1.2-1.7V6.7z"/>
	<path d="M113.1,6.7h1.2v35.4h-1.2V6.7z M118,26h8.6c5.6,0,9.3-3.6,9.3-9c0-5.4-3.7-9.1-9.3-9.1H118V6.7h8.6
		C132.7,6.7,137,11,137,17c0,6-4.3,10.2-10.5,10.2H118V26z"/>
	<path d="M144.6,32.1c1.5-1.7,2.6-2.1,5.4-2.1h12.9v1.2H150c-2.5,0-3.2,0.2-4.5,1.7l-8.1,9.3h-1.5L144.6,32.1z M166.6,6.7h1.1v35.4
		h-1.2V8.6l-15.4,17.7h-1.5L166.6,6.7z"/>
	<path d="M183.5,6.7h1.2v35.4h-1.2V6.7z"/>
</g>
</svg>
