<?xml version="1.0" encoding="utf-8"?>
<!-- Generator: Adobe Illustrator 18.1.1, SVG Export Plug-In . SVG Version: 6.00 Build 0)  -->
<svg version="1.1" id="Layer_1" xmlns="http://www.w3.org/2000/svg" xmlns:xlink="http://www.w3.org/1999/xlink" x="0px" y="0px"
	 viewBox="0 0 200 50" enable-background="new 0 0 200 50" xml:space="preserve">
<g>
	<path fill="#FFFFFF" d="M20.9,27.3v12.4c0,1-0.4,1.4-1.4,1.4h-4.1c-1,0-1.4-0.4-1.4-1.4V10.4c0-1,0.4-1.4,1.4-1.4h4.1
		c1,0,1.4,0.4,1.4,1.4v11L28,10c0.4-0.7,1.1-1.1,1.9-1h5.2C35.7,9,36,9.2,36,9.7c0,0.1-0.1,0.3-0.2,0.5l-9,14.8l9.2,14.8
		c0.1,0.2,0.2,0.4,0.2,0.5c0,0.5-0.3,0.7-0.9,0.7h-5.4c-0.8,0-1.4-0.3-1.8-1.1L20.9,27.3z"/>
	<path fill="#FFFFFF" d="M51,35.3l-2,4.7c-0.3,0.7-0.8,1.1-1.6,1.1h-4.8c-0.7,0-1.1-0.3-1.1-0.8c0-0.2,0-0.3,0.1-0.6l11.8-29.7
		C53.8,9.3,54.4,9,55.2,9H58c0.8,0,1.3,0.4,1.6,1.1l11.9,29.7c0.1,0.2,0.1,0.4,0.1,0.6c0,0.5-0.4,0.8-1.1,0.8h-4.7
		c-0.8,0-1.4-0.3-1.7-1.1l-2.1-4.7H51z M56.6,21.2l-3.1,7.6h6L56.6,21.2z"/>
	<path fill="#FFFFFF" d="M86,22.5v17.2c0,1-0.4,1.4-1.4,1.4h-3.8c-1,0-1.4-0.4-1.4-1.4V10.4c0-1,0.4-1.4,1.4-1.4h3.7
		c0.9,0,1.5,0.3,2,1l12.2,17.5V10.4c0-1,0.4-1.4,1.4-1.4h3.8c1,0,1.4,0.4,1.4,1.4v29.3c0,1-0.4,1.4-1.4,1.4h-3.6c-0.9,0-1.5-0.3-2-1
		L86,22.5z"/>
	<path fill="#FFFFFF" d="M123,28.9v10.8c0,1-0.4,1.4-1.4,1.4h-4.1c-1,0-1.4-0.4-1.4-1.4V10.4c0-1,0.4-1.4,1.4-1.4h8.7
		c2.7,0,5,0.9,6.8,2.7c1.8,1.9,2.8,4.2,2.8,7.1c0,3-1,5.5-3,7.4c-1.8,1.8-4,2.6-6.6,2.6H123z M123,21.9h3.1c1,0,1.7-0.4,2.1-1.2
		c0.3-0.6,0.5-1.2,0.5-1.8c0-1-0.3-1.7-0.9-2.3c-0.4-0.4-1-0.6-1.7-0.6H123V21.9z"/>
	<path fill="#FFFFFF" d="M148.5,35.3l-2,4.7c-0.3,0.7-0.8,1.1-1.6,1.1h-4.8c-0.7,0-1.1-0.3-1.1-0.8c0-0.2,0-0.3,0.1-0.6L151,10.1
		c0.3-0.8,0.8-1.1,1.6-1.1h2.8c0.8,0,1.3,0.4,1.6,1.1l11.9,29.7c0.1,0.2,0.1,0.4,0.1,0.6c0,0.5-0.4,0.8-1.1,0.8h-4.7
		c-0.8,0-1.4-0.3-1.7-1.1l-2.1-4.7H148.5z M154.1,21.2l-3.1,7.6h6L154.1,21.2z"/>
	<path fill="#FFFFFF" d="M179.9,9h4.1c1,0,1.4,0.4,1.4,1.4v29.4c0,1-0.4,1.4-1.4,1.4h-4.1c-1,0-1.4-0.4-1.4-1.4V10.4
		C178.4,9.4,178.9,8.9,179.9,9z"/>
</g>
</svg>
