<?xml version="1.0" encoding="utf-8"?>
<!-- Generator: Adobe Illustrator 18.1.1, SVG Export Plug-In . SVG Version: 6.00 Build 0)  -->
<!DOCTYPE svg PUBLIC "-//W3C//DTD SVG 1.1//EN" "http://www.w3.org/Graphics/SVG/1.1/DTD/svg11.dtd">
<svg version="1.1" id="Layer_1" xmlns="http://www.w3.org/2000/svg" xmlns:xlink="http://www.w3.org/1999/xlink" x="0px" y="0px"
	 viewBox="0 0 2200 1000" enable-background="new 0 0 2200 1000" xml:space="preserve">
<g>
	<g>
		<path d="M1199.9,613.6h-6.5v-45h6.5c5.9,0,10-1.3,12.6-3.9c4-4.1,5.2-11.5,5.3-14.1v-79.4c0-8.6-2.9-11.8-7.2-14
			c-5.3-2.7-11.4-3-11.5-3l0.1-6.5h-6.3v-38.5h6.5c2.6,0,16.1,0.3,30.2,7.2c21.4,10.3,33.2,29.8,33.2,54.8v79.5
			c0,2.8-0.4,27.7-18.5,45.8C1233.2,607.7,1217.8,613.6,1199.9,613.6z M1206.4,581.2v19.1c11.6-1.2,21.4-5.6,28.8-13
			c14.6-14.6,14.7-35.7,14.7-36.6v-79.5c0-19.8-9.2-35.1-25.8-43.1c-6.7-3.2-13.4-4.7-18.1-5.3V442c3.1,0.6,6.9,1.7,10.6,3.6
			c9.6,5,14.2,13.3,14.2,25.6v79.5c0,0.1-0.2,14.3-9.1,23.2C1217.8,577.8,1212.8,580.2,1206.4,581.2z"/>
	</g>
</g>
<g>
	<g>
		<path fill="#FFFFFF" d="M1099.5,707.1c-43,0-73.8-7.2-91.6-21.4C993.4,674,993,661.9,993,660.5V381h13l0-0.2
			c0,0.3,2.7,33.7,93.5,33.7s93.5-33.3,93.5-33.7l0,0.2h13v279.6c0,1.3-0.4,13.5-14.9,25.1C1173.3,699.9,1142.5,707.1,1099.5,707.1z
			"/>
	</g>
	<g>
		<path d="M1199.5,381v279.6c0,0,0,40-100,40s-100-40-100-40V381c0,0,0,40,100,40S1199.5,381,1199.5,381 M1186.5,380.3
			c0,0.3-0.8,6.1-10.3,12.5c-10.3,6.9-32,15.2-76.7,15.2s-66.4-8.3-76.7-15.2c-9.5-6.4-10.3-12.3-10.3-12.5c0,0,0,0.2,0,0.7h-26
			v279.6c0,2.7,0.8,16.9,17.4,30.2c19,15.2,51.1,22.9,95.6,22.9s76.7-7.7,95.6-22.9c16.5-13.2,17.4-27.5,17.4-30.2V381h-26
			C1186.5,380.5,1186.5,380.3,1186.5,380.3L1186.5,380.3z"/>
	</g>
</g>
<g>
	<path d="M1045.8,418.9v202.6c-0.1,0.8-0.4,3-1.4,4.7c-0.6,1-1.4,2.4-5.3,2.4c-3.9,0-4.7-1.4-5.3-2.4c-1-1.7-1.3-3.8-1.4-4.7V418.9
		H1045.8 M1058.8,405.9h-39.5v215.9c0,0,0.4,19.7,19.7,19.7c19.3,0,19.7-19.7,19.7-19.7V405.9L1058.8,405.9z"/>
</g>
<g>
	<path d="M1106.7,418.9v221.6c-0.1,0.8-0.4,3-1.4,4.7c-0.6,1-1.4,2.4-5.3,2.4s-4.7-1.4-5.3-2.4c-1-1.7-1.3-3.8-1.4-4.7V418.9H1106.7
		 M1119.7,405.9h-39.5v234.9c0,0,0.4,19.7,19.7,19.7s19.7-19.7,19.7-19.7V405.9L1119.7,405.9z"/>
</g>
<g>
	<path d="M1167.7,418.9v202.6c-0.1,0.8-0.4,3-1.4,4.7c-0.6,1-1.4,2.4-5.3,2.4s-4.7-1.4-5.3-2.4c-1-1.7-1.3-3.8-1.4-4.7V418.9H1167.7
		 M1180.7,405.9h-39.5v215.9c0,0,0.4,19.7,19.7,19.7c19.3,0,19.7-19.7,19.7-19.7V405.9L1180.7,405.9z"/>
</g>
<g>
	<g>
		<path fill="#FFFFFF" d="M1041.7,482.5c-37,0-67.1-30.1-67.1-67.1c0-0.5,0-1,0-1.5c-14.2-6.9-23.4-21.4-23.4-37.5
			c0-22.8,18.5-41.4,41.3-41.6c3.1-20.9,21.2-36.9,42.9-36.9c11.3,0,21.9,4.3,29.9,12c11.2-6.6,23.9-10,37-10c6.9,0,13.7,1,20.2,2.8
			c10-16.1,27.4-25.9,46.6-25.9c26.7,0,49.2,18.9,54,44.7c19.2,6.3,32.7,24.6,32.7,45.1c0,22.8-15.8,41.9-37.6,46.4
			c-3.7,21.3-22.3,37.3-44.5,37.3c-12.7,0-24.7-5.3-33.2-14.5c-11.5,7.1-24.6,10.8-38.3,10.8c-0.4,0-0.8,0-1.2,0
			C1089.5,468.5,1066.7,482.5,1041.7,482.5z"/>
	</g>
	<g>
		<path d="M1169.1,283.3c25,0,45.6,19,48.2,43.4c18.3,4.1,32,20.4,32,39.9c0,21.3-16.2,38.7-37,40.7c-1.1,20.4-17.9,36.5-38.6,36.5
			c-13.2,0-24.9-6.6-31.8-16.8c-11.1,8.2-24.8,13-39.6,13c-1.7,0-3.5-0.1-5.2-0.2c-9.4,21.3-30.7,36.1-55.4,36.1
			c-33.4,0-60.6-27.1-60.6-60.6c0-1.9,0.1-3.9,0.3-5.8c-13.8-4.7-23.7-17.8-23.7-33.2c0-19.4,15.7-35.1,35.1-35.1
			c1.9,0,3.8,0.2,5.6,0.5c0-0.2,0-0.3,0-0.5c0-20.4,16.5-36.9,36.9-36.9c11.7,0,22.1,5.4,28.8,13.9c10.8-7.5,23.9-11.9,38.1-11.9
			c8.2,0,16.1,1.5,23.3,4.2C1133.4,294.4,1150,283.3,1169.1,283.3 M1169.1,270.3c-11.7,0-23.2,3.3-33,9.6c-6.4,4.1-12,9.3-16.4,15.4
			c-5.7-1.3-11.5-1.9-17.4-1.9c-12.7,0-25,3-36.1,8.6c-8.7-6.8-19.4-10.6-30.8-10.6c-23.1,0-42.7,15.8-48.3,37.2
			c-23.9,2.8-42.4,23.2-42.4,47.8c0,17.2,9.1,32.8,23.5,41.3c1.2,39.5,33.7,71.2,73.5,71.2c26.1,0,50-13.8,63.2-35.9
			c12.2-0.4,24-3.5,34.7-9.2c9.3,8.3,21.5,13,34.2,13c23.9,0,44.2-16.3,50-38.6c9.3-2.8,17.8-8,24.5-15.3
			c9.1-10,14.1-22.9,14.1-36.4c0-12.3-4.3-24.4-12-34c-5.7-7.1-13.2-12.6-21.5-16c-2.9-11.7-9.3-22.3-18.3-30.5
			C1199,275.9,1184.4,270.3,1169.1,270.3L1169.1,270.3z"/>
	</g>
</g>
<g>
	<path d="M1020.7,433.8c-1.7,0-3.3-0.6-4.6-1.9l-9.9-9.9c-2.5-2.5-2.5-6.7,0-9.2c2.5-2.5,6.7-2.5,9.2,0l9.9,9.9
		c2.5,2.5,2.5,6.7,0,9.2C1024,433.2,1022.4,433.8,1020.7,433.8z"/>
</g>
<g>
	<path d="M1113.7,361.1c-1.7,0-3.3-0.6-4.6-1.9l-9.9-9.9c-2.5-2.5-2.5-6.7,0-9.2c2.5-2.5,6.7-2.5,9.2,0l9.9,9.9
		c2.5,2.5,2.5,6.7,0,9.2C1117,360.4,1115.4,361.1,1113.7,361.1z"/>
</g>
<g>
	<path d="M1118.7,284.8c-1.7,0-3.3-0.6-4.6-1.9l-9.9-9.9c-2.5-2.5-2.5-6.7,0-9.2c2.5-2.5,6.7-2.5,9.2,0l9.9,9.9
		c2.5,2.5,2.5,6.7,0,9.2C1122,284.2,1120.3,284.8,1118.7,284.8z"/>
</g>
<g>
	<path d="M1064,383.1c-1.7,0-3.3-0.6-4.6-1.9l-16.6-16.6c-2.5-2.5-2.5-6.7,0-9.2c2.5-2.5,6.7-2.5,9.2,0l16.6,16.6
		c2.5,2.5,2.5,6.7,0,9.2C1067.4,382.4,1065.7,383.1,1064,383.1z"/>
</g>
<g>
	<path d="M1167.8,364.4c-1.7,0-3.3-0.6-4.6-1.9l-16.6-16.6c-2.5-2.5-2.5-6.7,0-9.2c2.5-2.5,6.7-2.5,9.2,0l16.6,16.6
		c2.5,2.5,2.5,6.7,0,9.2C1171.1,363.7,1169.4,364.4,1167.8,364.4z"/>
</g>
<g>
	<path d="M1179.3,411.4c-1.7,0-3.3-0.6-4.6-1.9l-23.1-23.1c-2.5-2.5-2.5-6.7,0-9.2c2.5-2.5,6.7-2.5,9.2,0l23.1,23.1
		c2.5,2.5,2.5,6.7,0,9.2C1182.6,410.8,1181,411.4,1179.3,411.4z"/>
</g>
<g>
	<path d="M1102,404.8c-1.7,0-3.3-0.6-4.6-1.9l-9-9c-2.5-2.5-2.5-6.7,0-9.2c2.5-2.5,6.7-2.5,9.2,0l9,9c2.5,2.5,2.5,6.7,0,9.2
		C1105.3,404.2,1103.6,404.8,1102,404.8z"/>
</g>
<g>
	<path d="M1009.2,394.3c-1.7,0-3.3-0.6-4.6-1.9L993.3,381c-2.5-2.5-2.5-6.7,0-9.2c2.5-2.5,6.7-2.5,9.2,0l11.4,11.4
		c2.5,2.5,2.5,6.7,0,9.2C1012.6,393.7,1010.9,394.3,1009.2,394.3z"/>
</g>
<g>
	<path d="M974.7,326c-1.7,0-3.3-0.6-4.6-1.9l-11.4-11.4c-2.5-2.5-2.5-6.7,0-9.2c2.5-2.5,6.7-2.5,9.2,0l11.4,11.4
		c2.5,2.5,2.5,6.7,0,9.2C978.1,325.3,976.4,326,974.7,326z"/>
</g>
<g>
	<path d="M1213.1,372.2c-1.7,0-3.3-0.6-4.6-1.9l-11.4-11.4c-2.5-2.5-2.5-6.7,0-9.2c2.5-2.5,6.7-2.5,9.2,0l11.4,11.4
		c2.5,2.5,2.5,6.7,0,9.2C1216.5,371.5,1214.8,372.2,1213.1,372.2z"/>
</g>
<g>
	<path d="M1254.9,317.3c-1.7,0-3.3-0.6-4.6-1.9L1239,304c-2.5-2.5-2.5-6.7,0-9.2c2.5-2.5,6.7-2.5,9.2,0l11.4,11.4
		c2.5,2.5,2.5,6.7,0,9.2C1258.3,316.7,1256.6,317.3,1254.9,317.3z"/>
</g>
<g>
	<path d="M1060.3,435.2c-1.7,0-3.3-0.6-4.6-1.9l-12.8-12.8c-2.5-2.5-2.5-6.7,0-9.2c2.5-2.5,6.7-2.5,9.2,0l12.8,12.8
		c2.5,2.5,2.5,6.7,0,9.2C1063.6,434.6,1062,435.2,1060.3,435.2z"/>
</g>
<g>
	<path d="M958.4,440.9c-1.7,0-3.3-0.6-4.6-1.9L941,426.2c-2.5-2.5-2.5-6.7,0-9.2c2.5-2.5,6.7-2.5,9.2,0l12.8,12.8
		c2.5,2.5,2.5,6.7,0,9.2C961.7,440.3,960,440.9,958.4,440.9z"/>
</g>
<g>
	<g>
		<path d="M1388.8,610.9l49.9,24.2c1.4,0.6,1.8,1.6,1,3l-3,6.2c-0.6,1.4-1.6,1.8-3,1l-21.2-10.3c-0.1,0-0.2,0-0.2,0c0,0,0,0.1,0,0.2
			l15.2,24.1c0.8,1.1,0.8,2.3,0.2,3.5l-3.8,7.7c-0.4,0.9-1,1.2-1.7,0.8c-0.2-0.1-0.5-0.3-0.7-0.7l-17.4-27.1
			c-0.1-0.2-0.2-0.3-0.3-0.4c-0.1-0.1-0.3-0.1-0.5,0l-32.2,3.4c-0.4,0-0.7,0-0.9-0.1c-0.7-0.4-0.9-1-0.4-1.9l3.9-8.1
			c0.6-1.2,1.6-1.9,2.9-2l28.3-2.9c0.1,0,0.1-0.1,0.1-0.1c0-0.1,0-0.1-0.1-0.2l-21.2-10.3c-1.4-0.6-1.8-1.6-1-3l3-6.2
			C1386.4,610.5,1387.4,610.1,1388.8,610.9z"/>
	</g>
	<g>
		<path d="M1302.1,740.4l-2.5-9.6c-0.4-1.3,0-2.3,1.1-3.1l6.4-4.8c0.9-0.7,1.6-0.7,2.2,0c0.1,0.2,0.3,0.5,0.4,0.9l15.9,58.1
			c0.4,1.3,0,2.3-1,3l-3.9,2.9c-1,0.8-2.1,0.9-3.2,0.2l-51.6-31.2c-0.3-0.2-0.5-0.4-0.7-0.6c-0.5-0.7-0.3-1.4,0.6-2.1l6.3-4.7
			c1-0.8,2.1-0.9,3.2-0.2l8.7,5c0.1,0.1,0.3,0,0.4-0.1l17.8-13.4C1302.1,740.7,1302.1,740.6,1302.1,740.4z M1310.2,770.1l-4.9-18
			c0-0.1-0.1-0.1-0.1-0.2c-0.1-0.1-0.2-0.1-0.4,0l-10.7,8.1c-0.2,0.1-0.2,0.3-0.1,0.4c0,0,0.1,0.1,0.1,0.1l15.9,9.7
			c0.1,0,0.1,0.1,0.2,0C1310.2,770.2,1310.2,770.2,1310.2,770.1z"/>
	</g>
	<g>
		<path d="M1165.4,833.1l-5.5-35.3c-0.3-1.5,0.3-2.4,1.9-2.6l6.8-1.1c1.5-0.3,2.4,0.3,2.6,1.9l8.6,54.7c0.3,1.5-0.3,2.4-1.9,2.7
			l-6.3,1l-0.1,0.1c-1.3,0.3-2.4-0.2-3.3-1.2l-29.8-32.1l5.5,35.2c0.3,1.5-0.4,2.4-1.9,2.6l-6.8,1.1c-1.6,0.3-2.4-0.3-2.6-1.9
			l-8.6-54.7c-0.3-1.5,0.3-2.4,1.9-2.6l6.2-1c1.4-0.2,2.5,0.1,3.4,1.2L1165.4,833.1z"/>
	</g>
	<g>
		<path d="M1020.3,793.7l-17,52.8c-0.4,1.5-1.4,2-2.8,1.5L985,843c-4.7-1.5-8.1-4.3-10.2-8.5c-2.2-4.3-2.5-9-0.9-14
			c1.7-5.2,4.8-9,9.3-11.2c4.1-2.1,8.4-2.4,12.9-0.9l6.2,2c0.3,0.1,0.5,0,0.6-0.3l6.4-19.8c0.5-1.5,1.4-2,2.9-1.5l6.5,2.1
			C1020.3,791.3,1020.8,792.2,1020.3,793.7z M995.4,833.8l3.8-11.9c0.1-0.3,0-0.5-0.3-0.6l-6.2-2c-2.1-0.7-4-0.3-5.5,1.1
			c-1.1,1-1.9,2.2-2.3,3.6c-0.4,1.3-0.5,2.7-0.2,4c0.4,2.1,1.7,3.4,3.9,4.1l6.2,2C995.1,834.2,995.3,834.1,995.4,833.8z"/>
	</g>
	<g>
		<path d="M885,730.4l9.1-4c1.2-0.6,2.2-0.4,3.2,0.6l5.7,5.5c0.8,0.8,0.9,1.5,0.3,2.1c-0.2,0.2-0.4,0.3-0.8,0.5L847.6,760
			c-1.2,0.6-2.2,0.4-3.2-0.5l-3.5-3.4c-1-0.9-1.2-1.9-0.7-3.1L863,697c0.1-0.3,0.3-0.6,0.5-0.8c0.6-0.6,1.3-0.6,2.2,0.2l5.7,5.5
			c1,0.9,1.2,1.9,0.7,3.2l-3.5,9.4c0,0.1,0,0.3,0.1,0.4l16,15.4C884.7,730.4,884.8,730.5,885,730.4z M857,743.1l17-7.7
			c0.1,0,0.1-0.1,0.2-0.1c0.1-0.1,0.1-0.2-0.1-0.4l-9.6-9.3c-0.2-0.2-0.3-0.2-0.4-0.1c0,0-0.1,0.1-0.1,0.2l-7.1,17.2
			c0,0.1,0,0.1,0,0.2C856.8,743.1,856.9,743.1,857,743.1z"/>
	</g>
	<g>
		<path d="M755.4,627.9l-2.5-6.4c-0.6-1.4-0.2-2.4,1.3-2.9l51.7-20.1c1.4-0.6,2.4-0.2,2.9,1.3l2.5,6.4c0.6,1.4,0.2,2.4-1.3,2.9
			l-51.7,20.1C756.9,629.8,755.9,629.4,755.4,627.9z"/>
	</g>
	<g>
		<path fill="#F1F2F2" d="M731.3,485.1l42,0c1.6-0.1,2.3,0.7,2.3,2.3l0,6.3c0.1,1.6-0.7,2.3-2.3,2.3l-42,0c-1.6,0.1-2.3-0.7-2.3-2.3
			l0-6.3C729,485.9,729.7,485.1,731.3,485.1z M778.4,490.7c0-1.5,0.5-2.8,1.6-3.9c1-1.1,2.3-1.6,3.9-1.6c1.5,0,2.8,0.5,3.8,1.6
			c1.1,1.1,1.6,2.4,1.6,3.9c0,1.5-0.5,2.7-1.6,3.8c-1.1,1.1-2.4,1.6-3.8,1.6c-1.5,0-2.8-0.5-3.9-1.6
			C778.9,493.5,778.3,492.2,778.4,490.7z"/>
	</g>
</g>
<g>
	<g>
		<path d="M810.2,370.6l-49.9-24.2c-1.4-0.6-1.8-1.6-1-3l3-6.2c0.6-1.4,1.6-1.8,3-1l21.2,10.3c0.1,0,0.2,0,0.2,0c0,0,0-0.1,0-0.2
			L771.5,322c-0.8-1.1-0.8-2.3-0.2-3.5l3.8-7.7c0.4-0.9,1-1.2,1.7-0.8c0.2,0.1,0.5,0.3,0.7,0.7l17.4,27.1c0.1,0.2,0.2,0.3,0.3,0.4
			c0.1,0.1,0.3,0.1,0.5,0l32.2-3.4c0.4,0,0.7,0,0.9,0.1c0.7,0.4,0.9,1,0.4,1.9l-3.9,8.1c-0.6,1.2-1.6,1.9-2.9,2l-28.3,2.9
			c-0.1,0-0.1,0.1-0.1,0.1c0,0.1,0,0.1,0.1,0.2l21.2,10.3c1.4,0.6,1.8,1.6,1,3l-3,6.2C812.5,371,811.5,371.3,810.2,370.6z"/>
	</g>
	<g>
		<path d="M896.8,241l2.5,9.6c0.4,1.3,0,2.3-1.1,3.1l-6.4,4.8c-0.9,0.7-1.6,0.7-2.2,0c-0.1-0.2-0.3-0.5-0.4-0.9l-15.9-58.1
			c-0.4-1.3,0-2.3,1-3l3.9-2.9c1-0.8,2.1-0.9,3.2-0.2l51.6,31.2c0.3,0.2,0.5,0.4,0.7,0.6c0.5,0.7,0.3,1.4-0.6,2.1l-6.3,4.7
			c-1,0.8-2.1,0.9-3.2,0.2l-8.7-5c-0.1-0.1-0.3,0-0.4,0.1L897,240.6C896.8,240.7,896.8,240.9,896.8,241z M888.7,211.3l4.9,18
			c0,0.1,0.1,0.1,0.1,0.2c0.1,0.1,0.2,0.1,0.4,0l10.7-8.1c0.2-0.1,0.2-0.3,0.1-0.4c0,0-0.1-0.1-0.1-0.1l-15.9-9.7
			c-0.1,0-0.1-0.1-0.2,0C888.7,211.2,888.7,211.3,888.7,211.3z"/>
	</g>
	<g>
		<path d="M1033.5,148.3l5.5,35.3c0.3,1.5-0.3,2.4-1.9,2.6l-6.8,1.1c-1.5,0.3-2.4-0.3-2.6-1.9l-8.6-54.7c-0.3-1.5,0.3-2.4,1.9-2.7
			l6.3-1l0.1-0.1c1.3-0.3,2.4,0.2,3.3,1.2l29.8,32.1l-5.5-35.2c-0.3-1.5,0.4-2.4,1.9-2.6l6.8-1.1c1.6-0.3,2.4,0.3,2.6,1.9l8.6,54.7
			c0.3,1.5-0.3,2.4-1.9,2.6l-6.2,1c-1.4,0.2-2.5-0.1-3.4-1.2L1033.5,148.3z"/>
	</g>
	<g>
		<path d="M1178.7,187.8l17-52.8c0.4-1.5,1.4-2,2.8-1.5l15.4,4.9c4.7,1.5,8.1,4.3,10.2,8.5c2.2,4.3,2.5,9,0.9,14
			c-1.7,5.2-4.8,9-9.3,11.2c-4.1,2.1-8.4,2.4-12.9,0.9l-6.2-2c-0.3-0.1-0.5,0-0.6,0.3l-6.4,19.8c-0.5,1.5-1.4,2-2.9,1.5l-6.5-2.1
			C1178.6,190.2,1178.1,189.2,1178.7,187.8z M1203.6,147.7l-3.8,11.9c-0.1,0.3,0,0.5,0.3,0.6l6.2,2c2.1,0.7,4,0.3,5.5-1.1
			c1.1-1,1.9-2.2,2.3-3.6c0.4-1.3,0.5-2.7,0.2-4c-0.4-2.1-1.7-3.4-3.9-4.1l-6.2-2C1203.8,147.2,1203.6,147.3,1203.6,147.7z"/>
	</g>
	<g>
		<path d="M1313.9,251.1l-9.1,4c-1.2,0.6-2.2,0.4-3.2-0.6l-5.7-5.5c-0.8-0.8-0.9-1.5-0.3-2.1c0.2-0.2,0.4-0.3,0.8-0.5l54.9-24.8
			c1.2-0.6,2.2-0.4,3.2,0.5l3.5,3.4c1,0.9,1.2,1.9,0.7,3.1l-22.7,55.9c-0.1,0.3-0.3,0.6-0.5,0.8c-0.6,0.6-1.3,0.6-2.2-0.2l-5.7-5.5
			c-1-0.9-1.2-1.9-0.7-3.2l3.5-9.4c0-0.1,0-0.3-0.1-0.4l-16-15.4C1314.2,251,1314.1,251,1313.9,251.1z M1342,238.3l-17,7.7
			c-0.1,0-0.1,0.1-0.2,0.1c-0.1,0.1-0.1,0.2,0.1,0.4l9.6,9.3c0.2,0.2,0.3,0.2,0.4,0.1c0,0,0.1-0.1,0.1-0.2l7.1-17.2
			c0-0.1,0-0.1,0-0.2C1342.1,238.3,1342,238.3,1342,238.3z"/>
	</g>
	<g>
		<path d="M1443.6,353.6l2.5,6.4c0.6,1.4,0.2,2.4-1.3,2.9l-51.7,20.1c-1.4,0.6-2.4,0.2-2.9-1.3l-2.5-6.4c-0.6-1.4-0.2-2.4,1.3-2.9
			l51.7-20.1C1442.1,351.7,1443,352.1,1443.6,353.6z"/>
	</g>
	<g>
		<path fill="#F1F2F2" d="M1420.6,490.8c0,1.5-0.5,2.8-1.6,3.9c-1,1.1-2.3,1.6-3.9,1.6c-1.5,0-2.8-0.5-3.8-1.6
			c-1.1-1.1-1.6-2.4-1.6-3.9c0-1.5,0.5-2.7,1.6-3.8c1.1-1.1,2.4-1.6,3.8-1.6c1.5,0,2.8,0.5,3.9,1.6
			C1420,488,1420.6,489.3,1420.6,490.8z M1467.6,496.3l-42,0c-1.6,0.1-2.3-0.7-2.3-2.3l0-6.3c-0.1-1.6,0.7-2.3,2.3-2.3l42,0
			c1.6-0.1,2.3,0.7,2.3,2.3l0,6.3C1470,495.6,1469.2,496.4,1467.6,496.3z"/>
	</g>
</g>
<g>
	<path d="M2063.8,507.2c-14.3,0-21.9-6.4-28-11.5c-5.6-4.7-10.1-8.5-19.7-8.5c-9.6,0-14,3.7-19.7,8.5c-6.1,5.1-13.7,11.5-28,11.5
		c-14.3,0-21.9-6.4-28-11.5c-5.6-4.7-10.1-8.5-19.7-8.5s-14,3.7-19.7,8.5c-6.1,5.1-13.7,11.5-28,11.5s-21.9-6.4-28-11.5
		c-5.6-4.7-10.1-8.5-19.7-8.5c-9.6,0-14,3.7-19.7,8.5c-6.1,5.1-13.7,11.5-28,11.5s-21.9-6.4-28-11.5c-5.6-4.7-10.1-8.5-19.7-8.5
		s-14,3.7-19.7,8.5c-6.1,5.1-13.7,11.5-28,11.5s-21.9-6.4-28-11.5c-5.6-4.7-10.1-8.5-19.7-8.5c-9.5,0-14,3.7-19.7,8.5
		c-6.1,5.1-13.7,11.5-28,11.5s-21.9-6.4-28-11.5c-5.6-4.7-10.1-8.5-19.7-8.5c-3.6,0-6.5-2.9-6.5-6.5s2.9-6.5,6.5-6.5l0,0
		c14.3,0,21.9,6.4,28,11.5c5.6,4.7,10.1,8.5,19.7,8.5s14-3.7,19.7-8.5c6.1-5.1,13.7-11.5,28-11.5s21.9,6.4,28,11.5
		c5.6,4.7,10.1,8.5,19.7,8.5s14-3.7,19.7-8.5c6.1-5.1,13.7-11.5,28-11.5s21.9,6.4,28,11.5c5.6,4.7,10.1,8.5,19.7,8.5
		s14-3.7,19.7-8.5c6.1-5.1,13.7-11.5,28-11.5c14.3,0,21.9,6.4,28,11.5c5.6,4.7,10.1,8.5,19.7,8.5c9.6,0,14-3.7,19.7-8.5
		c6.1-5.1,13.7-11.5,28-11.5s21.9,6.4,28,11.5c5.6,4.7,10.1,8.5,19.7,8.5s14-3.7,19.7-8.5c6.1-5.1,13.7-11.5,28-11.5
		c14.3,0,21.9,6.4,28,11.5c5.6,4.7,10.1,8.5,19.7,8.5c9.6,0,14-3.7,19.7-8.5c6.1-5.1,13.7-11.5,28-11.5c3.6,0,6.5,2.9,6.5,6.5
		s-2.9,6.5-6.5,6.5c-9.6,0-14,3.7-19.7,8.5C2085.7,500.8,2078.1,507.2,2063.8,507.2z"/>
</g>
<g>
	<path d="M623.1,507.2c-14.3,0-21.9-6.4-28-11.5c-5.6-4.7-10.1-8.5-19.7-8.5c-9.6,0-14,3.7-19.7,8.5c-6.1,5.1-13.7,11.5-28,11.5
		s-21.9-6.4-28-11.5c-5.6-4.7-10.1-8.5-19.7-8.5c-9.6,0-14,3.7-19.7,8.5c-6.1,5.1-13.7,11.5-28,11.5s-21.9-6.4-28-11.5
		c-5.6-4.7-10.1-8.5-19.7-8.5c-9.6,0-14,3.7-19.7,8.5c-6.1,5.1-13.7,11.5-28,11.5c-14.3,0-21.9-6.4-28-11.5
		c-5.6-4.7-10.1-8.5-19.7-8.5c-9.6,0-14,3.7-19.7,8.5c-6.1,5.1-13.7,11.5-28,11.5c-14.3,0-21.9-6.4-28-11.5
		c-5.6-4.7-10.1-8.5-19.7-8.5c-9.5,0-14,3.7-19.7,8.5c-6.1,5.1-13.7,11.5-28,11.5s-21.9-6.4-28-11.5c-5.6-4.7-10.1-8.5-19.7-8.5
		c-3.6,0-6.5-2.9-6.5-6.5s2.9-6.5,6.5-6.5c14.3,0,21.9,6.4,28,11.5c5.6,4.7,10.1,8.5,19.7,8.5c9.5,0,14-3.7,19.7-8.5
		c6.1-5.1,13.7-11.5,28-11.5s21.9,6.4,28,11.5c5.6,4.7,10.1,8.5,19.7,8.5s14-3.7,19.7-8.5c6.1-5.1,13.7-11.5,28-11.5
		c14.3,0,21.9,6.4,28,11.5c5.6,4.7,10.1,8.5,19.7,8.5c9.6,0,14-3.7,19.7-8.5c6.1-5.1,13.7-11.5,28-11.5c14.3,0,21.9,6.4,28,11.5
		c5.6,4.7,10.1,8.5,19.7,8.5s14-3.7,19.7-8.5c6.1-5.1,13.7-11.5,28-11.5c14.3,0,21.9,6.4,28,11.5c5.6,4.7,10.1,8.5,19.7,8.5
		c9.6,0,14-3.7,19.7-8.5c6.1-5.1,13.7-11.5,28-11.5c14.3,0,21.9,6.4,28,11.5c5.6,4.7,10.1,8.5,19.7,8.5s14-3.7,19.7-8.5
		c6.1-5.1,13.7-11.5,28-11.5c3.6,0,6.5,2.9,6.5,6.5s-2.9,6.5-6.5,6.5c-9.6,0-14,3.7-19.7,8.5C645,500.8,637.4,507.2,623.1,507.2z"/>
</g>
</svg>
